<svg xmlns="http://www.w3.org/2000/svg" viewBox="0 0 64 64">
  <path d="M51.4 46.8c4.6 0 8-1.4 9.9-3.4 1-1.1 2.1-2.8 1.3-4.1-.7-1.1-1.9-1.4-3.3-.7-1.5.7-3.1 1.1-4.8 1.1-1.7 0-3.3-.5-4.6-1.6-1.2-1.2-1.9-2.8-1.8-4.5 0-.4.3-.5.8-.1 1.7 1.1 3.6 1.6 5.6 1.5 4.6 0 8.7-3.1 8.7-7.9 0-5.1-4.8-8.8-12-8.8-8.1 0-14.4 5.2-14.4 14-.1 8.3 5.4 14.5 14.6 14.5zm-33.5-8.6c.9 0 1.4.5 2 1.4l2.6 4.1c1 1.6 1.8 2.7 3.7 2.7s2.8-.8 3.7-2.9c1.4-3.2 2.6-6.6 3.4-10 1.2-4.7 1.7-7.7 1.7-10.1s-.8-3.8-3.4-4.3c-4.5-.7-9.2-1.1-13.8-1-4.6 0-9.2.3-13.8 1-2.6.5-3.4 1.9-3.4 4.3s.5 5.3 1.7 10.1c.9 3.4 2 6.8 3.4 10 .9 2.1 1.8 2.9 3.7 2.9s2.7-1.1 3.7-2.7l2.6-4.1c.9-.9 1.4-1.4 2.2-1.4z"/>
</svg>