<?xml version="1.0" encoding="utf-8"?>
<!-- Generator: Adobe Illustrator 21.0.2, SVG Export Plug-In . SVG Version: 6.00 Build 0)  -->
<svg version="1.1" id="Layer_1" xmlns="http://www.w3.org/2000/svg" xmlns:xlink="http://www.w3.org/1999/xlink" x="0px" y="0px"
	 viewBox="0 0 264.6 39.6" style="enable-background:new 0 0 264.6 39.6;" xml:space="preserve">
<style type="text/css">
	.st0{fill:#FFFFFF;}
</style>
<title>logowhite</title>
<g>
	<path class="st0" d="M157.7,21.8c-0.4-0.1-1.7-0.3-2.1-0.4c-2.1-0.4-3.9-0.9-3.9-3c0-1.8,1.9-2.7,4.3-2.7c2.4,0.1,4.8,0.7,7,1.8
		l1.9-5.1c-2.7-1.4-5.8-2.1-8.9-2.1c-4.6,0-10.1,2.4-10.1,8.3c0,5.3,3.8,7,7.5,7.7c0.5,0.1,2.1,0.4,2.6,0.4c2.5,0.4,3.8,1.3,3.8,2.9
		c0,2-1.9,3-4.8,3c-2.8,0-5.6-0.5-8.2-1.7l-2.1,5c0.7,0.3,3.8,2.1,10.1,2.1c6,0,10.9-3,10.9-8.5C165.4,24.4,161.9,22.5,157.7,21.8"
		/>
	<path class="st0" d="M176.1,1l-5.7,3.2v6.7h-3v5.5h3v11.8c0,5,2.1,9.6,9.4,9.6h2.3v-5.5h-0.9c-3.6,0-5.1-2.1-5.1-4.9v-11h6.5v-5.5
		h-6.5L176.1,1z"/>
	<path class="st0" d="M220.6,15.9c2.2,0,4.5,1,5.2,3.5l5.2-2c-1.4-5.1-6.2-7-10.4-7c-7.5,0-10.6,4.7-10.6,9.2v9.4
		c0,4.5,3,9.2,10.6,9.2c4.2,0,9-1.9,10.4-7l-5.2-2c-0.7,2.4-3,3.5-5.2,3.5c-3.9,0-4.9-2.1-4.9-4.5v-7.7
		C215.7,18,216.7,15.9,220.6,15.9"/>
	<polygon class="st0" points="245,22.9 255.6,10.8 248.6,10.8 239.5,21.3 239.5,1 233.8,1 233.8,37.6 239.5,37.6 239.5,29.1 
		241.3,27 249.5,37.6 256.3,37.6 	"/>
	<path class="st0" d="M261.8,15.8c-1.5,0-2.8-1.2-2.8-2.7c0,0,0,0,0-0.1c0-1.5,1.3-2.8,2.8-2.7c1.5,0,2.7,1.2,2.7,2.7
		C264.6,14.6,263.3,15.8,261.8,15.8C261.8,15.8,261.8,15.8,261.8,15.8z M261.8,10.9c-1.2,0-2.1,0.9-2.2,2.1c0,1.2,0.9,2.1,2.1,2.2
		c1.2,0,2.1-0.9,2.2-2.1c0,0,0,0,0,0C263.9,11.9,262.9,11,261.8,10.9L261.8,10.9z M262.2,14.4C262.2,14.4,262.2,14.4,262.2,14.4
		l-0.5-1h-0.3v0.9c0,0,0,0.1,0,0.1h-0.5c0,0-0.1,0-0.1-0.1v-2.8h1.1c0.5-0.1,1,0.3,1,0.8c0,0,0,0.1,0,0.1v0.1c0,0.4-0.2,0.7-0.6,0.9
		l0.5,0.9c0,0,0,0.1,0,0.1L262.2,14.4z M262.3,12.5c0-0.2-0.1-0.4-0.5-0.4h-0.4V13h0.4C262.2,13,262.3,12.8,262.3,12.5L262.3,12.5z"
		/>
</g>
<g>
	<path class="st0" d="M198.6,16.7h-5.9c-0.9,0-1.7,0.8-1.7,1.7v6.4h-5.8v-6.4c0-4.2,3.4-7.6,7.6-7.6c0,0,0,0,0,0h5.9L198.6,16.7z"/>
	<path class="st0" d="M193.7,31.8h5.9c0.9,0,1.7-0.8,1.7-1.7v-6.4h5.8v6.4c0,4.2-3.4,7.6-7.6,7.6h-5.9V31.8z"/>
	<path class="st0" d="M97,10.8h6.5v5.5H97v11c0,2.8,1.5,4.9,5.1,4.9h0.9v5.5h-2.3c-7.3,0-9.4-4.5-9.4-9.6V16.3h-9.6v11
		c0,2.8,1.5,4.9,5.1,4.9h0.9v5.5h-2.3c-7.3,0-9.4-4.5-9.4-9.6V16.3h-2.9v-5.5H76V4.2L81.7,1v9.8h9.6V4.2L97,1V10.8z"/>
	<path class="st0" d="M35.5,10.3c-1.8,0-3.6,0.4-5.3,1V1h-5.7v36.6h5.7V16.7c1.3-0.8,2.9-1.2,4.4-1.2c3.6,0,5.3,2,5.3,4.9v17.2h5.7
		V19.7C45.6,14.3,41.7,10.3,35.5,10.3"/>
	<path class="st0" d="M64.4,32.3c-1.2,0.6-2.5,0.9-3.8,0.9c-4.3,0-5.9-2.2-5.9-5.2V10.8H49v17.3c0,6.7,3.9,10,10.9,10
		c3.5-0.1,7-0.8,10.2-2.2V10.8h-5.7L64.4,32.3z"/>
	<path class="st0" d="M13.8,21.8c-0.4-0.1-1.7-0.3-2.1-0.4c-2.1-0.4-3.9-0.9-3.9-3c0-1.8,1.9-2.7,4.3-2.7c2.4,0.1,4.8,0.7,7,1.8
		l1.9-5.1c-2.7-1.4-5.8-2.1-8.9-2.1C7.6,10.3,2,12.7,2,18.7c0,5.3,3.8,7,7.5,7.7c0.5,0.1,2.1,0.4,2.6,0.4c2.5,0.4,3.8,1.3,3.8,2.9
		c0,2-1.9,3-4.8,3c-2.8,0-5.6-0.5-8.2-1.7l-2.1,5c0.7,0.3,3.8,2.1,10.1,2.1c6,0,10.9-3,10.9-8.5C21.6,24.4,18.1,22.5,13.8,21.8"/>
	<path class="st0" d="M127.2,19.5c0-4.9-3.7-9.2-10.5-9.2c-7.6,0-10.6,4.8-10.6,9.2v8.9c0,6.2,3.9,9.7,10.6,9.7
		c5.8,0,8.9-3.4,9.8-5.4l-4.8-2.9c-1,1.8-2.9,2.9-4.9,2.9c-3.5,0-4.9-2-4.9-4.4l0-1.5h15.3V19.5z M121.5,22.2h-9.6v-2
		c0-2.2,1.1-4.5,4.8-4.5c3.6,0,4.8,2.3,4.8,4.4V22.2z"/>
	<path class="st0" d="M130.8,19.5v18.1h5.7V20c0-1.5,0.9-4.2,5.1-4.2c0.9,0,1.8,0.1,2.6,0.3v-5.5c-1-0.2-1.9-0.3-2.9-0.3
		C134,10.3,130.8,14.9,130.8,19.5"/>
</g>
</svg>
